<svg width="154" height="48" viewBox="0 0 154 48" fill="none" xmlns="http://www.w3.org/2000/svg" id="logoWhile" class="logo-light">
    <path d="M12.8704 14.4738H18.1068C18.234 14.4622 18.3622 14.4783 18.4826 14.521C18.6029 14.5637 18.7126 14.6321 18.8039 14.7213C18.9543 14.9241 19.029 15.173 19.0152 15.425C19.0152 16.3276 18.3157 17.5869 17.1766 17.5869H12.1417L12.8704 14.4738Z" fill="white"></path>
    <path fill-rule="evenodd" clip-rule="evenodd" d="M10.1817 9H23.9141C25.7211 9 27.8341 10.32 27.2706 13.154C26.6197 15.937 25.8401 19.3243 25.4733 20.9184H19.8119C16.7564 20.9184 14.1892 23.1774 13.5286 25.9605V25.9847H12.0033C11.9107 25.9831 11.8199 26.0102 11.7434 26.0624L6.13295 30.0489C6.05557 30.1038 5.96333 30.134 5.86843 30.1354C5.77353 30.1368 5.68043 30.1094 5.60146 30.0568C5.52248 30.0042 5.46135 29.9289 5.42615 29.8408C5.39095 29.7528 5.38334 29.6561 5.40432 29.5637L6.2131 25.9847C3.97133 25.9847 2.57721 24.1334 3.1164 21.8599C3.1164 21.8599 4.46438 15.9346 5.13715 13.1249C5.80992 10.3151 7.93268 9 10.1817 9ZM11.9863 19.152H17.1766C19.1828 19.152 20.5794 17.1866 20.5794 15.4251C20.5991 14.7963 20.3884 14.182 19.9867 13.6975C19.7512 13.4354 19.4604 13.2288 19.1354 13.0924C18.8103 12.9561 18.4591 12.8934 18.1069 12.9089H12.3215C12.1237 12.9088 11.9317 12.9757 11.7769 13.0986C11.622 13.2216 11.5135 13.3933 11.469 13.5859L9.62554 21.5735C9.59924 21.6854 9.59528 21.8013 9.61389 21.9147C9.63251 22.0281 9.67333 22.1367 9.73402 22.2343C9.79471 22.3319 9.87408 22.4165 9.96757 22.4835C10.0611 22.5504 10.1669 22.5982 10.2789 22.6242C10.3443 22.6386 10.4111 22.646 10.478 22.646C10.6761 22.647 10.8685 22.5805 11.0235 22.4574C11.1785 22.3343 11.2869 22.162 11.3305 21.9691L11.9863 19.152Z" fill="white"></path>
    <path fill-rule="evenodd" clip-rule="evenodd" d="M33.7799 22.1025L34.596 18.4629C34.6105 18.3968 34.61 18.3283 34.5945 18.2623C34.5791 18.1964 34.549 18.1348 34.5067 18.082C34.4643 18.0292 34.4106 17.9865 34.3496 17.9571C34.2885 17.9277 34.2217 17.9124 34.1539 17.9121C34.0606 17.9126 33.9697 17.9423 33.8941 17.997L28.2593 22.0103C28.1827 22.0649 28.0911 22.0946 27.997 22.0952H19.7925C17.5435 22.0952 15.2847 23.9344 14.7455 26.2055L12.7151 34.8629C12.1783 37.134 14.0582 38.9877 15.8118 38.9877H29.7991C32.0482 38.9877 34.3069 37.1461 34.8461 34.8629L36.8669 26.2055C37.4134 23.9344 36.0314 22.1025 33.7799 22.1025ZM31.1082 28.1685L28.0795 34.6954C28.0075 34.8451 27.8953 34.9719 27.7556 35.0618C27.6159 35.1517 27.4539 35.2013 27.2878 35.205H27.2489C27.0883 35.2047 26.9306 35.1619 26.7919 35.0809C26.6533 35 26.5386 34.8837 26.4595 34.744L24.5238 31.3228L20.3949 34.9866C20.2553 35.1068 20.083 35.1828 19.9001 35.2049C19.7171 35.2269 19.5317 35.194 19.3675 35.1104C19.2024 35.0254 19.0673 34.892 18.9805 34.728C18.8936 34.564 18.8592 34.3773 18.8817 34.1932L19.7221 27.6419C19.735 27.5214 19.772 27.4046 19.8309 27.2985C19.8897 27.1925 19.9693 27.0993 20.0648 27.0244C20.1603 26.9496 20.2699 26.8946 20.387 26.8628C20.5042 26.831 20.6265 26.823 20.7468 26.8392C20.8671 26.8554 20.9829 26.8956 21.0874 26.9573C21.1919 27.019 21.283 27.101 21.3553 27.1984C21.4275 27.2959 21.4795 27.4068 21.5081 27.5246C21.5367 27.6425 21.5414 27.7649 21.5218 27.8846L21.0069 32.0143L24.1644 29.2118C24.2658 29.122 24.386 29.056 24.5163 29.0186C24.6466 28.9812 24.7836 28.9735 24.9173 28.9959C25.0511 29.0175 25.1783 29.0691 25.2894 29.1469C25.4004 29.2246 25.4924 29.3264 25.5585 29.4447L27.1663 32.3127L29.4494 27.3944C29.5221 27.2374 29.6382 27.1044 29.7841 27.0111C29.93 26.9178 30.0995 26.8681 30.2727 26.8679C30.4268 26.8671 30.5785 26.9055 30.7136 26.9794C30.8487 27.0533 30.9627 27.1603 31.0451 27.2903C31.1274 27.4204 31.1753 27.5692 31.1842 27.7228C31.1931 27.8764 31.1628 28.0298 31.0961 28.1685H31.1082Z" fill="#00E6A0"></path>
    <path fill-rule="evenodd" clip-rule="evenodd" d="M115.107 25.8983C114.802 27.338 114.033 28.6369 112.917 29.5939C111.875 30.4572 110.56 30.9198 109.208 30.8984C107.794 30.8984 106.775 30.4574 106.151 29.5754C105.527 28.6934 105.41 27.4615 105.801 25.8798L106.734 22.1287C107.042 20.6921 107.808 19.3949 108.916 18.4331C109.95 17.5514 111.268 17.076 112.626 17.0953C114.031 17.0953 115.052 17.5388 115.686 18.4331C116.32 19.3274 116.442 20.5507 116.055 22.1287L115.107 25.8983ZM113.452 22.1176C113.698 21.1617 113.698 20.4386 113.452 19.9483C113.325 19.7006 113.127 19.4972 112.883 19.3651C112.638 19.2331 112.36 19.1787 112.084 19.2092C111.761 19.2028 111.44 19.2654 111.143 19.3929C110.847 19.5203 110.58 19.7097 110.362 19.9483C109.829 20.5692 109.466 21.3179 109.307 22.1213L108.367 25.902C108.121 26.8751 108.114 27.6044 108.345 28.0898C108.574 28.5739 109.027 28.8289 109.706 28.8289C110.028 28.8316 110.347 28.7673 110.644 28.6401C110.94 28.5128 111.207 28.3255 111.427 28.0898C111.98 27.469 112.359 26.713 112.526 25.8983L113.452 22.1176ZM73.7977 26.5849C73.8142 26.7978 73.7871 27.0119 73.718 27.2139C73.6161 27.6827 73.3666 28.1063 73.0064 28.4223C72.6313 28.7301 72.1559 28.8881 71.6716 28.8658C70.9674 28.8658 70.4881 28.6847 70.23 28.3226C69.9719 27.9604 69.9424 27.3654 70.1488 26.5376H67.6084L67.5752 26.593C67.2089 27.99 67.3945 29.058 68.132 29.7971C68.5362 30.1776 69.0132 30.472 69.5341 30.6625C70.055 30.8531 70.6091 30.9358 71.1628 30.9058C72.3445 30.9351 73.5054 30.5912 74.4813 29.9228C75.4129 29.2785 76.0705 28.3083 76.3249 27.2028C76.6014 26.0793 76.5055 25.1887 76.0299 24.5309C75.553 23.873 74.7357 23.3298 73.5779 22.9011C73.0416 22.6711 72.5499 22.3484 72.1252 21.9476C71.996 21.7976 71.9084 21.6163 71.8708 21.4218C71.8333 21.2273 71.8473 21.0264 71.9113 20.8389C72.0224 20.3728 72.2811 19.9553 72.6487 19.6489C73.0239 19.3439 73.4971 19.1862 73.9798 19.2055C74.2062 19.1815 74.4347 19.2222 74.6389 19.3229C74.8431 19.4236 75.0147 19.5802 75.1339 19.7746C75.3488 20.2386 75.3791 20.7672 75.2187 21.2528H77.7518L77.785 21.1974C78.091 20.0296 77.9546 19.0724 77.3536 18.289C76.7526 17.5055 75.8086 17.1359 74.5403 17.1359C73.3421 17.1175 72.1688 17.4797 71.1886 18.1707C70.254 18.7971 69.5851 19.7495 69.3119 20.8426C69.0365 21.9587 69.1693 22.821 69.7101 23.4296C70.2509 24.0381 71.1554 24.5888 72.4238 25.0815C72.8941 25.27 73.3072 25.5783 73.6222 25.9758C73.7215 26.1648 73.7812 26.372 73.7977 26.5849ZM47.8088 25.8986L46.6142 30.7029H44L47.3185 17.3174H51.9606C53.2954 17.3174 54.2466 17.7128 54.8218 18.5C55.397 19.2871 55.5224 20.3256 55.1906 21.608C54.9076 22.8298 54.228 23.9229 53.2585 24.716C52.2933 25.4981 51.0852 25.9165 49.8442 25.8986H47.8088ZM48.3287 23.8106H50.3567C50.625 23.814 50.891 23.7608 51.1375 23.6545C51.3839 23.5482 51.6053 23.3911 51.7873 23.1934C52.1977 22.7542 52.4841 22.2134 52.6169 21.6265C52.7794 21.1069 52.7652 20.5479 52.5764 20.0374C52.4788 19.8313 52.3203 19.6605 52.1223 19.548C51.9244 19.4356 51.6967 19.3871 51.4702 19.4091H49.4423L48.3287 23.8106ZM67.6197 17.3208L65.3521 26.4305C65.0765 27.7503 64.3421 28.9291 63.2799 29.7566C62.2525 30.5314 60.9962 30.9398 59.7107 30.917C58.3587 30.917 57.362 30.5289 56.7204 29.7529C56.0788 28.9768 55.935 27.8755 56.289 26.449L58.5566 17.3393H61.1634L58.8958 26.449C58.6918 27.2669 58.7102 27.8681 58.9511 28.2524C59.0933 28.4549 59.2869 28.6154 59.5119 28.7175C59.7369 28.8195 59.9851 28.8593 60.2306 28.8327C60.8065 28.851 61.3687 28.6548 61.8087 28.282C62.3041 27.7765 62.6346 27.1322 62.7563 26.4342L65.0239 17.3245L67.6197 17.3208ZM87.2023 30.7063H84.5991L85.9781 25.1629H81.8301L80.4511 30.7063H77.8369L81.1553 17.3208H83.7658L82.3352 23.0749H86.4833L87.9139 17.3208H90.5207L87.2023 30.7063ZM100.197 25.8614H100.141L100.303 17.3208H98.4304L94.3745 25.8614H94.3192L95.005 17.3208H92.4719L91.7345 30.7063H94.157L98.0691 22.5058H98.1244L97.9658 30.7063H100.396L106.295 17.3208H103.762L100.197 25.8614ZM124.38 29.594C125.497 28.6384 126.266 27.3387 126.566 25.8983L127.503 22.1473C127.89 20.5693 127.768 19.346 127.134 18.4517C126.5 17.5573 125.479 17.1138 124.074 17.1138C122.717 17.0945 121.398 17.5699 120.365 18.4517C119.255 19.4124 118.488 20.71 118.182 22.1473L117.249 25.8983C116.862 27.4875 116.976 28.7107 117.599 29.594C118.222 30.4772 119.244 30.917 120.656 30.917C122.015 30.936 123.336 30.4667 124.38 29.594ZM124.911 19.9484C125.157 20.4387 125.157 21.1618 124.911 22.1177L123.956 25.8983C123.799 26.7106 123.43 27.4668 122.887 28.0898C122.666 28.3256 122.399 28.5129 122.103 28.6401C121.807 28.7673 121.487 28.8316 121.165 28.829C120.483 28.829 120.029 28.574 119.804 28.0898C119.571 27.6045 119.577 26.8752 119.823 25.902L120.763 22.1214C120.924 21.3182 121.288 20.5699 121.821 19.9484C122.039 19.7097 122.306 19.5204 122.603 19.393C122.899 19.2655 123.22 19.2029 123.543 19.2093C123.819 19.1793 124.097 19.234 124.341 19.3659C124.586 19.4979 124.784 19.701 124.911 19.9484ZM134.628 27.2138C134.697 27.0118 134.724 26.7978 134.707 26.5849C134.691 26.372 134.631 26.1647 134.532 25.9758C134.216 25.5775 133.802 25.2691 133.33 25.0815C132.065 24.5973 131.158 24.0467 130.62 23.4295C130.081 22.8124 129.945 21.9513 130.221 20.8426C130.495 19.7494 131.164 18.7971 132.098 18.1707C133.077 17.4802 134.249 17.118 135.446 17.1359C136.718 17.1359 137.659 17.5054 138.26 18.2889C138.861 19.0724 138.997 20.0296 138.691 21.1974L138.661 21.2528H136.125C136.282 20.7665 136.251 20.2384 136.036 19.7746C135.918 19.5802 135.747 19.4235 135.543 19.3227C135.34 19.2219 135.112 19.1813 134.886 19.2054C134.399 19.1841 133.922 19.3419 133.544 19.6489C133.176 19.9553 132.917 20.3728 132.806 20.8389C132.739 21.026 132.724 21.2275 132.762 21.4226C132.799 21.6176 132.889 21.7989 133.02 21.9476C133.445 22.3483 133.937 22.6711 134.473 22.9011C135.631 23.3297 136.448 23.873 136.925 24.5308C137.397 25.1886 137.496 26.0793 137.216 27.2028C136.962 28.3082 136.304 29.2784 135.372 29.9227C134.397 30.5924 133.236 30.9364 132.054 30.9058C131.501 30.9357 130.947 30.8529 130.427 30.6623C129.907 30.4718 129.43 30.1774 129.027 29.7971C128.289 29.058 128.104 27.9899 128.47 26.593L128.503 26.5375H131.044C130.837 27.3654 130.863 27.9604 131.121 28.3225C131.383 28.6921 131.859 28.8658 132.567 28.8658C133.051 28.888 133.526 28.7301 133.901 28.4223C134.267 28.1084 134.522 27.6846 134.628 27.2138ZM145.508 30.7063H148.111L151.43 17.3208H148.826L147.392 23.0749H143.248L144.678 17.3208H142.064L138.746 30.7063H141.36L142.739 25.1629H146.887L145.508 30.7063Z" fill="white"></path>
</svg>
